<svg width="18" height="17" viewBox="0 0 18 17" fill="none" xmlns="http://www.w3.org/2000/svg">
<path d="M12.6486 0.574707H4.88287C2.73842 0.574707 1 2.31313 1 4.45758V12.2233C1 14.3678 2.73842 16.1062 4.88287 16.1062H12.6486C14.7931 16.1062 16.5315 14.3678 16.5315 12.2233V4.45758C16.5315 2.31313 14.7931 0.574707 12.6486 0.574707Z" stroke="white" stroke-linecap="round" stroke-linejoin="round"/>
<path d="M11.8708 7.85134C11.9666 8.49764 11.8562 9.15771 11.5553 9.73765C11.2544 10.3176 10.7782 10.7879 10.1946 11.0816C9.61102 11.3754 8.94965 11.4776 8.30458 11.3738C7.65951 11.27 7.06359 10.9655 6.60159 10.5035C6.13959 10.0415 5.83503 9.44555 5.73123 8.80048C5.62743 8.15541 5.72967 7.49404 6.02342 6.91042C6.31717 6.32681 6.78746 5.85068 7.3674 5.54976C7.94735 5.24884 8.60741 5.13845 9.25372 5.23429C9.91297 5.33204 10.5233 5.63924 10.9946 6.1105C11.4658 6.58176 11.773 7.19209 11.8708 7.85134Z" stroke="white" stroke-linecap="round" stroke-linejoin="round"/>
<path d="M13.0367 4.06982H13.0444" stroke="white" stroke-linecap="round" stroke-linejoin="round"/>
</svg>
