<svg id="Warstwa_1" data-name="Warstwa 1" xmlns="http://www.w3.org/2000/svg" viewBox="0 0 37.99 31.47"><defs><style>.cls-1{fill:#1d1d1b;}</style></defs><path class="cls-1" d="M29.37,21.57a14.34,14.34,0,0,1-4.66,4.7A7.92,7.92,0,0,0,17.24,21H0V14.75H17.24a14.21,14.21,0,0,1,12.13,6.82Z"/><path class="cls-1" d="M38,0V6.27H17.24A22.64,22.64,0,0,0,3.42,11,14.31,14.31,0,0,1,16.81,0H38Z"/><path class="cls-1" d="M37.56,7.38,30,20.49a15.28,15.28,0,0,0-12.75-6.85H3.06c0-.34,0-.68.07-1A21.6,21.6,0,0,1,28,10.26l.48.28,1.83-3.16Z"/><path class="cls-1" d="M24.06,28.94v2.53H17.8V28.39h-.56A14.22,14.22,0,0,1,5.46,22.12H17.24a6.82,6.82,0,0,1,6.6,5.12A6.5,6.5,0,0,1,24.06,28.94Z"/></svg>